<svg width="36" height="36" viewBox="0 0 36 36" fill="none" xmlns="http://www.w3.org/2000/svg">
<path d="M18 36C27.9411 36 36 27.9411 36 18C36 8.05888 27.9411 0 18 0C8.05888 0 0 8.05888 0 18C0 27.9411 8.05888 36 18 36Z" fill="#FB4516"/>
<path fill-rule="evenodd" clip-rule="evenodd" d="M27.72 21.3841C27.72 22.1761 28.368 22.8241 29.16 22.8241C29.952 22.8241 30.6 22.1761 30.6 21.3841C30.6 20.5921 29.952 19.9441 29.16 19.9441C28.368 19.9441 27.72 20.5921 27.72 21.3841Z" fill="white"/>
<path fill-rule="evenodd" clip-rule="evenodd" d="M18.792 15.1201C18.648 15.7681 19.008 16.4161 19.728 16.6321C20.448 16.8481 21.168 16.4161 21.312 15.7681L22.608 10.9441C22.608 10.9441 23.76 9.28808 24.984 9.64808C25.848 9.86408 26.28 10.6561 25.992 11.8801L24.696 16.7041C24.552 17.3521 24.912 18.0001 25.632 18.2161C26.352 18.4321 27.072 18.0001 27.216 17.3521L28.512 12.5281C29.232 9.86408 28.224 8.06408 26.424 7.63208C24.408 7.05608 23.328 8.42408 23.328 8.42408H23.256L23.328 8.20808C23.472 7.56008 23.112 6.91208 22.392 6.69608C21.672 6.48008 20.952 6.91208 20.808 7.56008L18.792 15.1201Z" fill="white"/>
<path fill-rule="evenodd" clip-rule="evenodd" d="M15.552 12.24C13.896 9.43201 11.376 8.78401 9.14399 10.008C6.91199 11.304 6.19199 14.256 7.77599 16.992C9.35999 19.8 12.312 20.52 14.544 19.224C16.632 18 17.208 15.912 16.704 15.048C16.416 14.544 15.768 14.328 15.048 14.76C14.184 15.264 14.616 16.416 13.392 17.136C12.456 17.64 11.376 17.424 10.512 16.488L15.12 13.824C15.696 13.536 15.912 12.744 15.552 12.24ZM9.50399 14.616C9.07199 13.536 9.43199 12.528 10.296 12.024C11.16 11.52 12.168 11.736 12.816 12.744L9.50399 14.616Z" fill="white"/>
<path fill-rule="evenodd" clip-rule="evenodd" d="M17.9281 27.3601C20.4481 27.3601 22.9681 26.4961 24.8401 24.7681C25.1281 24.4801 25.4161 24.1921 25.7041 23.8321C25.9921 23.4001 26.2801 23.1121 26.8561 23.1121C27.5761 23.1121 28.1521 23.6881 28.1521 24.4081C28.1521 24.6961 28.0801 24.9841 27.8641 25.2001C27.5041 25.7041 27.0001 26.2081 26.5681 26.6401C24.1921 28.8001 21.0961 29.9521 17.9281 29.9521C14.5441 29.9521 11.5201 28.6561 9.2881 26.6401C8.7841 26.2081 8.3521 25.7041 7.9921 25.2001C7.8481 24.9841 7.7041 24.6961 7.7041 24.4081C7.7041 23.6881 8.2801 23.1121 9.0001 23.1121C9.5761 23.1121 9.8641 23.4001 10.1521 23.8321C10.4401 24.1201 10.7281 24.4801 11.0161 24.7681C12.8161 26.3521 15.1921 27.3601 17.9281 27.3601Z" fill="white"/>
</svg>
