<svg width="140" height="44" viewBox="0 0 140 44" fill="none" xmlns="http://www.w3.org/2000/svg">
<path d="M140 39.5894C140 42.0262 138.198 44 135.969 44H4.03674C1.8086 44 0 42.0262 0 39.5894V4.41635C0 1.98074 1.8086 0 4.03674 0H135.967C138.198 0 139.999 1.98074 139.999 4.41635L140 39.5894Z" fill="#141414"/>
<path d="M30.5292 21.3622C30.4991 18.083 33.2715 16.4877 33.3983 16.4134C31.8281 14.172 29.3945 13.8657 28.5393 13.8413C26.4953 13.6307 24.5126 15.0388 23.4714 15.0388C22.4094 15.0388 20.806 13.8616 19.0779 13.8962C16.8542 13.9298 14.7738 15.1904 13.6329 17.148C11.2782 21.1394 13.0343 27.005 15.2903 30.2313C16.4188 31.8114 17.7374 33.5756 19.4635 33.5135C21.1521 33.4454 21.7828 32.4595 23.8206 32.4595C25.8396 32.4595 26.4319 33.5135 28.1922 33.4739C30.0045 33.4454 31.1454 31.8866 32.2344 30.2923C33.5386 28.4813 34.0623 26.6977 34.0831 26.6061C34.0405 26.5919 30.5635 25.2926 30.5292 21.3622Z" fill="white"/>
<path d="M27.204 11.7189C28.1122 10.6068 28.7336 9.09391 28.5611 7.55859C27.2466 7.61557 25.6027 8.44886 24.656 9.5365C23.8185 10.4949 23.0703 12.0659 23.2636 13.5432C24.7402 13.651 26.2563 12.8137 27.204 11.7189Z" fill="white"/>
<path d="M50.1918 11.4154C50.1918 12.613 49.8249 13.5144 49.0923 14.1198C48.4138 14.6784 47.4495 14.9582 46.2004 14.9582C45.5811 14.9582 45.0511 14.9317 44.6074 14.8788V8.33564C45.1862 8.24407 45.8097 8.19727 46.4831 8.19727C47.6729 8.19727 48.5697 8.45061 49.1744 8.95729C49.852 9.53011 50.1918 10.3492 50.1918 11.4154ZM49.0435 11.4449C49.0435 10.6686 48.8336 10.0734 48.4138 9.65831C47.994 9.24421 47.3809 9.03666 46.5735 9.03666C46.2306 9.03666 45.9386 9.05904 45.6964 9.10584V14.0801C45.8305 14.1005 46.0757 14.1096 46.4321 14.1096C47.2655 14.1096 47.9088 13.8827 48.3618 13.429C48.8149 12.9752 49.0435 12.3138 49.0435 11.4449Z" fill="white"/>
<path d="M56.2801 12.46C56.2801 13.1977 56.065 13.802 55.6348 14.2761C55.1838 14.7635 54.5863 15.0067 53.8402 15.0067C53.1211 15.0067 52.5486 14.7737 52.1215 14.3057C51.6954 13.8386 51.4824 13.2495 51.4824 12.5394C51.4824 11.7966 51.7017 11.1872 52.1423 10.7141C52.5829 10.241 53.1752 10.0039 53.9213 10.0039C54.6404 10.0039 55.2181 10.2369 55.6556 10.7039C56.0713 11.1577 56.2801 11.7437 56.2801 12.46ZM55.1506 12.4946C55.1506 12.052 55.0529 11.6725 54.8586 11.3561C54.63 10.9735 54.3047 10.7822 53.8818 10.7822C53.4443 10.7822 53.1118 10.9735 52.8832 11.3561C52.6878 11.6725 52.5912 12.0581 52.5912 12.5139C52.5912 12.9565 52.6889 13.336 52.8832 13.6525C53.1191 14.035 53.4474 14.2263 53.8714 14.2263C54.2871 14.2263 54.6133 14.032 54.8482 13.6423C55.0498 13.3197 55.1506 12.9372 55.1506 12.4946Z" fill="white"/>
<path d="M64.4435 10.1016L62.9108 14.8978H61.9132L61.2783 12.8151C61.1172 12.2952 60.9863 11.7783 60.8844 11.2655H60.8647C60.7701 11.7926 60.6392 12.3084 60.4709 12.8151L59.7965 14.8978H58.7875L57.3462 10.1016H58.4653L59.0192 12.3817C59.1532 12.9209 59.2634 13.4347 59.3517 13.921H59.3715C59.4525 13.5202 59.5866 13.0094 59.7757 12.3918L60.4709 10.1026H61.3583L62.0244 12.343C62.1854 12.8894 62.3164 13.4154 62.4172 13.9221H62.4473C62.5211 13.4286 62.6323 12.9026 62.7798 12.343L63.3742 10.1026H64.4435V10.1016Z" fill="white"/>
<path d="M70.0901 14.8989H69.0011V12.1518C69.0011 11.3053 68.6727 10.882 68.0139 10.882C67.6907 10.882 67.4299 10.998 67.2273 11.231C67.0267 11.464 66.9249 11.7387 66.9249 12.0531V14.8979H65.8359V11.4732C65.8359 11.052 65.8224 10.5951 65.7964 10.1006H66.7534L66.8043 10.8505H66.8345C66.9613 10.6175 67.1504 10.4252 67.3987 10.2716C67.6938 10.0925 68.0243 10.002 68.3859 10.002C68.8431 10.002 69.2234 10.1464 69.5258 10.4364C69.902 10.7915 70.0901 11.3216 70.0901 12.0256V14.8989Z" fill="white"/>
<path d="M73.0909 14.8993H72.0029V7.90234H73.0909V14.8993Z" fill="white"/>
<path d="M79.5028 12.46C79.5028 13.1977 79.2877 13.802 78.8575 14.2761C78.4065 14.7635 77.8079 15.0067 77.0629 15.0067C76.3428 15.0067 75.7702 14.7737 75.3441 14.3057C74.9181 13.8386 74.7051 13.2495 74.7051 12.5394C74.7051 11.7966 74.9243 11.1872 75.3649 10.7141C75.8055 10.241 76.3978 10.0039 77.1429 10.0039C77.863 10.0039 78.4397 10.2369 78.8783 10.7039C79.2939 11.1577 79.5028 11.7437 79.5028 12.46ZM78.3722 12.4946C78.3722 12.052 78.2745 11.6725 78.0802 11.3561C77.8526 10.9735 77.5263 10.7822 77.1044 10.7822C76.6659 10.7822 76.3334 10.9735 76.1058 11.3561C75.9105 11.6725 75.8138 12.0581 75.8138 12.5139C75.8138 12.9565 75.9115 13.336 76.1058 13.6525C76.3417 14.035 76.6701 14.2263 77.0941 14.2263C77.5097 14.2263 77.835 14.032 78.0698 13.6423C78.2724 13.3197 78.3722 12.9372 78.3722 12.4946Z" fill="white"/>
<path d="M84.7739 14.8978H83.7961L83.715 14.3453H83.6849C83.3503 14.7859 82.8733 15.0067 82.254 15.0067C81.7916 15.0067 81.4175 14.8612 81.1359 14.5722C80.8803 14.3097 80.7524 13.9831 80.7524 13.5955C80.7524 13.0094 81.0018 12.5628 81.5037 12.2535C82.0046 11.9442 82.7091 11.7926 83.6163 11.7997V11.7102C83.6163 11.0783 83.2775 10.7629 82.599 10.7629C82.1158 10.7629 81.6897 10.882 81.3219 11.118L81.1006 10.418C81.5557 10.1423 82.1179 10.0039 82.7808 10.0039C84.061 10.0039 84.7032 10.6652 84.7032 11.9879V13.7542C84.7032 14.2334 84.7271 14.615 84.7739 14.8978ZM83.6433 13.2495V12.5099C82.4421 12.4895 81.8415 12.812 81.8415 13.4764C81.8415 13.7267 81.91 13.9139 82.0503 14.0391C82.1906 14.1642 82.3693 14.2263 82.5824 14.2263C82.8214 14.2263 83.0448 14.152 83.2484 14.0045C83.4532 13.8559 83.5789 13.6677 83.6256 13.4368C83.6371 13.3849 83.6433 13.3218 83.6433 13.2495Z" fill="white"/>
<path d="M90.9637 14.8993H89.9973L89.9464 14.1291H89.9162C89.6076 14.7151 89.0818 15.0082 88.343 15.0082C87.7528 15.0082 87.2613 14.7813 86.8716 14.3275C86.4819 13.8737 86.2876 13.2846 86.2876 12.5612C86.2876 11.7849 86.4985 11.1561 86.9225 10.6759C87.333 10.2282 87.8359 10.0044 88.4344 10.0044C89.0922 10.0044 89.5525 10.2211 89.8144 10.6555H89.8352V7.90234H90.9252V13.6071C90.9252 14.0741 90.9377 14.5045 90.9637 14.8993ZM89.8352 12.8766V12.0769C89.8352 11.9385 89.8248 11.8266 89.8051 11.7412C89.7437 11.4848 89.6118 11.2691 89.4112 11.0951C89.2086 10.9211 88.9644 10.8336 88.6828 10.8336C88.2765 10.8336 87.9585 10.9913 87.7247 11.3077C87.493 11.6241 87.3756 12.0281 87.3756 12.5215C87.3756 12.9957 87.4868 13.3803 87.7102 13.6763C87.946 13.9917 88.264 14.1494 88.662 14.1494C89.0195 14.1494 89.3052 14.0182 89.5224 13.7547C89.7323 13.5115 89.8352 13.2185 89.8352 12.8766Z" fill="white"/>
<path d="M100.275 12.46C100.275 13.1977 100.06 13.802 99.6299 14.2761C99.1789 14.7635 98.5825 15.0067 97.8353 15.0067C97.1173 15.0067 96.5447 14.7737 96.1166 14.3057C95.6906 13.8386 95.4775 13.2495 95.4775 12.5394C95.4775 11.7966 95.6968 11.1872 96.1374 10.7141C96.578 10.241 97.1703 10.0039 97.9174 10.0039C98.6355 10.0039 99.2143 10.2369 99.6507 10.7039C100.066 11.1577 100.275 11.7437 100.275 12.46ZM99.1467 12.4946C99.1467 12.052 99.049 11.6725 98.8547 11.3561C98.6251 10.9735 98.3009 10.7822 97.8769 10.7822C97.4405 10.7822 97.1079 10.9735 96.8783 11.3561C96.6829 11.6725 96.5863 12.0581 96.5863 12.5139C96.5863 12.9565 96.684 13.336 96.8783 13.6525C97.1142 14.035 97.4425 14.2263 97.8665 14.2263C98.2822 14.2263 98.6095 14.032 98.8443 13.6423C99.0449 13.3197 99.1467 12.9372 99.1467 12.4946Z" fill="white"/>
<path d="M106.132 14.8989H105.044V12.1518C105.044 11.3053 104.715 10.882 104.055 10.882C103.732 10.882 103.471 10.998 103.27 11.231C103.068 11.464 102.967 11.7387 102.967 12.0531V14.8979H101.877V11.4732C101.877 11.052 101.865 10.5951 101.839 10.1006H102.795L102.846 10.8505H102.876C103.004 10.6175 103.193 10.4252 103.44 10.2716C103.736 10.0925 104.066 10.002 104.428 10.002C104.885 10.002 105.265 10.1464 105.567 10.4364C105.944 10.7915 106.132 11.3216 106.132 12.0256V14.8989Z" fill="white"/>
<path d="M113.46 10.9004H112.261V13.2303C112.261 13.8225 112.474 14.1186 112.896 14.1186C113.091 14.1186 113.253 14.1023 113.381 14.0687L113.409 14.8776C113.194 14.9569 112.911 14.9966 112.563 14.9966C112.133 14.9966 111.798 14.8684 111.556 14.612C111.313 14.3556 111.193 13.9242 111.193 13.3189V10.9004H110.477V10.1017H111.193V9.22263L112.26 8.90723V10.1007H113.459V10.9004H113.46Z" fill="white"/>
<path d="M119.225 14.8993H118.135V12.1725C118.135 11.3128 117.807 10.8824 117.149 10.8824C116.644 10.8824 116.299 11.1317 116.11 11.6303C116.078 11.735 116.059 11.8632 116.059 12.0138V14.8983H114.971V7.90234H116.059V10.7929H116.08C116.423 10.2669 116.914 10.0044 117.551 10.0044C118.002 10.0044 118.375 10.1489 118.672 10.4388C119.04 10.8 119.225 11.3372 119.225 12.0474V14.8993Z" fill="white"/>
<path d="M125.172 12.2751C125.172 12.4664 125.158 12.6272 125.132 12.7584H121.866C121.88 13.2325 122.036 13.5937 122.339 13.844C122.615 14.0679 122.972 14.1798 123.408 14.1798C123.891 14.1798 124.332 14.1045 124.729 13.9529L124.899 14.6936C124.435 14.891 123.888 14.9897 123.255 14.9897C122.497 14.9897 121.899 14.7709 121.467 14.3334C121.032 13.8959 120.817 13.3088 120.817 12.5722C120.817 11.8488 121.018 11.2465 121.422 10.7663C121.844 10.2535 122.415 9.99707 123.135 9.99707C123.839 9.99707 124.374 10.2535 124.736 10.7663C125.028 11.1732 125.172 11.6769 125.172 12.2751ZM124.133 11.9994C124.142 11.683 124.07 11.4103 123.922 11.1804C123.733 10.8843 123.445 10.7357 123.056 10.7357C122.7 10.7357 122.41 10.8802 122.189 11.1702C122.008 11.4011 121.901 11.6769 121.866 11.9994H124.133Z" fill="white"/>
<path d="M54.9638 33.2852H52.6039L51.3112 29.3081H46.818L45.5866 33.2852H43.2891L47.7407 19.7451H50.4903L54.9638 33.2852ZM50.9215 27.6395L49.7525 24.1038C49.6288 23.7426 49.3971 22.8921 49.0552 21.5531H49.0137C48.8775 22.129 48.6583 22.9796 48.3569 24.1038L47.2087 27.6395H50.9215Z" fill="white"/>
<path d="M66.4127 28.2843C66.4127 29.9448 65.9545 31.2573 65.0379 32.2208C64.217 33.0785 63.1976 33.5069 61.9808 33.5069C60.6673 33.5069 59.7238 33.0449 59.1492 32.1211H59.1076V37.2643H56.8921V26.7368C56.8921 25.6929 56.8641 24.6215 56.8101 23.5227H58.7584L58.8821 25.0702H58.9237C59.6625 23.9042 60.7837 23.3223 62.2884 23.3223C63.4647 23.3223 64.4467 23.7771 65.2323 24.6877C66.0199 25.5993 66.4127 26.7978 66.4127 28.2843ZM64.1557 28.3637C64.1557 27.4134 63.9375 26.63 63.499 26.0134C63.0199 25.3704 62.3767 25.0489 61.5703 25.0489C61.0238 25.0489 60.527 25.2279 60.0833 25.581C59.6386 25.9371 59.3476 26.4021 59.2115 26.9779C59.1429 27.2465 59.1086 27.4663 59.1086 27.6393V29.2672C59.1086 29.9774 59.331 30.5766 59.7758 31.066C60.2205 31.5554 60.7983 31.7996 61.509 31.7996C62.3435 31.7996 62.9929 31.4842 63.4574 30.8554C63.9229 30.2256 64.1557 29.3954 64.1557 28.3637Z" fill="white"/>
<path d="M77.8799 28.2843C77.8799 29.9448 77.4217 31.2573 76.5041 32.2208C75.6842 33.0785 74.6649 33.5069 73.448 33.5069C72.1346 33.5069 71.191 33.0449 70.6174 32.1211H70.5758V37.2643H68.3604V26.7368C68.3604 25.6929 68.3324 24.6215 68.2783 23.5227H70.2267L70.3504 25.0702H70.3919C71.1297 23.9042 72.2509 23.3223 73.7567 23.3223C74.9319 23.3223 75.9139 23.7771 76.7016 24.6877C77.4861 25.5993 77.8799 26.7978 77.8799 28.2843ZM75.6229 28.3637C75.6229 27.4134 75.4037 26.63 74.9652 26.0134C74.4861 25.3704 73.845 25.0489 73.0376 25.0489C72.4899 25.0489 71.9943 25.2279 71.5495 25.581C71.1048 25.9371 70.8148 26.4021 70.6787 26.9779C70.6112 27.2465 70.5758 27.4663 70.5758 27.6393V29.2672C70.5758 29.9774 70.7982 30.5766 71.2409 31.066C71.6856 31.5544 72.2634 31.7996 72.9763 31.7996C73.8107 31.7996 74.4601 31.4842 74.9246 30.8554C75.3902 30.2256 75.6229 29.3954 75.6229 28.3637Z" fill="white"/>
<path d="M90.7047 29.4883C90.7047 30.64 90.2963 31.5771 89.4765 32.3005C88.5755 33.0911 87.3213 33.4858 85.7096 33.4858C84.2216 33.4858 83.0286 33.205 82.1256 32.6424L82.6389 30.8344C83.6116 31.4102 84.6788 31.6992 85.8416 31.6992C86.676 31.6992 87.3255 31.514 87.792 31.1457C88.2565 30.7774 88.4882 30.2829 88.4882 29.6664C88.4882 29.1169 88.297 28.654 87.9136 28.2786C87.5322 27.9031 86.8952 27.5541 86.0057 27.2316C83.5846 26.3475 82.375 25.0523 82.375 23.3491C82.375 22.236 82.799 21.3233 83.6479 20.6132C84.4938 19.902 85.6223 19.5469 87.0335 19.5469C88.2918 19.5469 89.3372 19.7616 90.1716 20.1899L89.6178 21.9582C88.8384 21.5431 87.9572 21.3355 86.9711 21.3355C86.1918 21.3355 85.5828 21.5238 85.1464 21.8982C84.7775 22.2329 84.5925 22.6409 84.5925 23.1242C84.5925 23.6594 84.8035 24.102 85.2274 24.4499C85.5963 24.7714 86.2666 25.1194 87.2392 25.4948C88.429 25.9639 89.3029 26.5123 89.8651 27.1411C90.4252 27.7678 90.7047 28.5523 90.7047 29.4883Z" fill="white"/>
<path d="M98.0288 25.1495H95.5868V29.8897C95.5868 31.0954 96.017 31.6977 96.8795 31.6977C97.2754 31.6977 97.6038 31.6642 97.8635 31.597L97.9248 33.2442C97.4884 33.404 96.9138 33.4844 96.202 33.4844C95.327 33.4844 94.6433 33.2229 94.1497 32.7009C93.6582 32.178 93.4108 31.3009 93.4108 30.0688V25.1474H91.9561V23.5195H93.4108V21.7319L95.5868 21.0889V23.5195H98.0288V25.1495Z" fill="white"/>
<path d="M109.046 28.323C109.046 29.8237 108.607 31.0558 107.732 32.0194C106.815 33.0114 105.597 33.5058 104.079 33.5058C102.615 33.5058 101.451 33.0307 100.582 32.0804C99.7132 31.1301 99.2788 29.9305 99.2788 28.4848C99.2788 26.9718 99.7256 25.7326 100.622 24.7691C101.517 23.8045 102.725 23.3223 104.243 23.3223C105.706 23.3223 106.883 23.7974 107.772 24.7487C108.622 25.6715 109.046 26.863 109.046 28.323ZM106.747 28.3932C106.747 27.4928 106.551 26.7205 106.153 26.0765C105.688 25.2971 105.024 24.9085 104.164 24.9085C103.273 24.9085 102.597 25.2981 102.132 26.0765C101.734 26.7215 101.538 27.506 101.538 28.4339C101.538 29.3343 101.734 30.1066 102.132 30.7496C102.611 31.5289 103.281 31.9176 104.144 31.9176C104.99 31.9176 105.654 31.5208 106.133 30.7292C106.541 30.073 106.747 29.2926 106.747 28.3932Z" fill="white"/>
<path d="M116.248 25.4304C116.028 25.3907 115.794 25.3704 115.549 25.3704C114.77 25.3704 114.167 25.6583 113.743 26.2352C113.374 26.7439 113.189 27.3869 113.189 28.1633V33.2861H110.975L110.996 26.5974C110.996 25.4721 110.968 24.4476 110.913 23.5237H112.842L112.923 25.3917H112.985C113.218 24.7497 113.587 24.2329 114.092 23.8452C114.586 23.4962 115.119 23.3223 115.694 23.3223C115.898 23.3223 116.083 23.3365 116.248 23.3619V25.4304Z" fill="white"/>
<path d="M126.157 27.9422C126.157 28.3309 126.131 28.6585 126.076 28.9261H119.429C119.455 29.8906 119.776 30.6283 120.394 31.137C120.954 31.5918 121.678 31.8197 122.567 31.8197C123.552 31.8197 124.449 31.6661 125.257 31.3578L125.604 32.8636C124.66 33.2665 123.546 33.4669 122.261 33.4669C120.715 33.4669 119.501 33.0213 118.618 32.131C117.737 31.2408 117.295 30.0453 117.295 28.5456C117.295 27.0733 117.705 25.8473 118.527 24.8696C119.388 23.8257 120.551 23.3037 122.014 23.3037C123.451 23.3037 124.539 23.8257 125.278 24.8696C125.863 25.6988 126.157 26.7243 126.157 27.9422ZM124.044 27.3796C124.059 26.7366 123.914 26.181 123.614 25.712C123.23 25.1087 122.641 24.8075 121.848 24.8075C121.124 24.8075 120.535 25.1015 120.085 25.6916C119.716 26.1607 119.497 26.7233 119.429 27.3786H124.044V27.3796Z" fill="white"/>
</svg>
