<svg width="140" height="44" viewBox="0 0 140 44" fill="none" xmlns="http://www.w3.org/2000/svg">
<path d="M134.815 44H5.18519C2.33463 44 0 41.5236 0 38.5V5.5C0 2.47638 2.33463 -9.53674e-07 5.18519 -9.53674e-07H134.815C137.665 -9.53674e-07 140 2.47638 140 5.5V38.5C140 41.5236 137.665 44 134.815 44Z" fill="#141414"/>
<path d="M10.8431 10.9727C10.5379 11.2856 10.3612 11.7727 10.3612 12.4035V34.9042C10.3612 35.535 10.5379 36.0221 10.8431 36.335L10.9184 36.4037L23.7959 23.8001V23.5025L10.9184 10.8989L10.8431 10.9727Z" fill="url(#paint0_linear_120_96)"/>
<path d="M28.0835 28.0026L23.7959 23.8001V23.5025L28.0887 19.2984L28.1849 19.3531L33.2688 22.1854C34.7197 22.9892 34.7197 24.3118 33.2688 25.1207L28.1849 27.9479L28.0835 28.0026Z" fill="url(#paint1_linear_120_96)"/>
<path d="M28.1849 27.9479L23.7957 23.6506L10.8431 36.335C11.325 36.831 12.1106 36.8901 13.0043 36.394L28.1849 27.9479Z" fill="url(#paint2_linear_120_96)"/>
<path d="M28.1849 19.3531L13.0043 10.9072C12.1106 10.4163 11.325 10.4767 10.8431 10.9727L23.7957 23.6506L28.1849 19.3531Z" fill="url(#paint3_linear_120_96)"/>
<path d="M49.2731 13.7228C49.2731 14.5724 49.0133 15.2528 48.5015 15.7603C47.9131 16.3618 47.1467 16.6645 46.2076 16.6645C45.3101 16.6645 44.5437 16.3567 43.915 15.7501C43.285 15.1345 42.9707 14.3791 42.9707 13.4748C42.9707 12.5706 43.285 11.8151 43.915 11.2047C44.5437 10.5929 45.3101 10.2852 46.2076 10.2852C46.6544 10.2852 47.0805 10.3755 47.487 10.5433C47.8923 10.7125 48.2222 10.9414 48.4612 11.2237L47.9183 11.7604C47.5013 11.2784 46.9337 11.0406 46.2076 11.0406C45.553 11.0406 44.9853 11.2644 44.5034 11.7159C44.0267 12.1687 43.7877 12.755 43.7877 13.4748C43.7877 14.1947 44.0267 14.7861 44.5034 15.2388C44.9853 15.6852 45.553 15.9142 46.2076 15.9142C46.9025 15.9142 47.4871 15.6852 47.9482 15.2337C48.2521 14.9349 48.4249 14.5228 48.4703 13.9963H46.2076V13.2612H49.2263C49.2627 13.4201 49.2731 13.574 49.2731 13.7228Z" fill="white" stroke="white" stroke-width="0.16" stroke-miterlimit="10"/>
<path d="M54.0621 11.1758H51.2266V13.109H53.7828V13.8441H51.2266V15.7772H54.0621V16.5263H50.4238V10.4268H54.0621V11.1758Z" fill="white" stroke="white" stroke-width="0.16" stroke-miterlimit="10"/>
<path d="M57.4419 16.5263H56.6392V11.1758H54.8999V10.4268H59.1824V11.1758H57.4419V16.5263Z" fill="white" stroke="white" stroke-width="0.16" stroke-miterlimit="10"/>
<path d="M62.2817 16.5263V10.4268H63.0832V16.5263H62.2817Z" fill="white" stroke="white" stroke-width="0.16" stroke-miterlimit="10"/>
<path d="M66.6362 16.5263H65.84V11.1758H64.0942V10.4268H68.382V11.1758H66.6362V16.5263Z" fill="white" stroke="white" stroke-width="0.16" stroke-miterlimit="10"/>
<path d="M76.4891 15.7399C75.8747 16.3567 75.1135 16.6645 74.2056 16.6645C73.2924 16.6645 72.5313 16.3567 71.9169 15.7399C71.3038 15.1244 70.9985 14.3689 70.9985 13.4748C70.9985 12.5808 71.3038 11.8253 71.9169 11.2098C72.5313 10.5929 73.2924 10.2852 74.2056 10.2852C75.1083 10.2852 75.8695 10.5929 76.4839 11.2148C77.1022 11.8355 77.4074 12.5858 77.4074 13.4748C77.4074 14.3689 77.1022 15.1244 76.4891 15.7399ZM72.5105 15.2286C72.9729 15.6852 73.5353 15.9142 74.2056 15.9142C74.8706 15.9142 75.4383 15.6852 75.8955 15.2286C76.3566 14.7721 76.5904 14.1858 76.5904 13.4748C76.5904 12.7639 76.3566 12.1776 75.8955 11.721C75.4383 11.2644 74.8706 11.0355 74.2056 11.0355C73.5353 11.0355 72.9729 11.2644 72.5105 11.721C72.0494 12.1776 71.8156 12.7639 71.8156 13.4748C71.8156 14.1858 72.0494 14.7721 72.5105 15.2286Z" fill="white" stroke="white" stroke-width="0.16" stroke-miterlimit="10"/>
<path d="M78.5337 16.5263V10.4268H79.5079L82.537 15.1706H82.572L82.537 13.998V10.4268H83.3384V16.5263H82.5019L79.3299 11.5485H79.2949L79.3299 12.7262V16.5263H78.5337Z" fill="white" stroke="white" stroke-width="0.16" stroke-miterlimit="10"/>
<path d="M70.8014 25.4346C68.3607 25.4346 66.3669 27.2533 66.3669 29.7626C66.3669 32.2515 68.3607 34.0893 70.8014 34.0893C73.2472 34.0893 75.2411 32.2515 75.2411 29.7626C75.2411 27.2533 73.2472 25.4346 70.8014 25.4346ZM70.8014 32.385C69.4622 32.385 68.3101 31.3027 68.3101 29.7626C68.3101 28.2021 69.4622 27.1389 70.8014 27.1389C72.1406 27.1389 73.2979 28.2021 73.2979 29.7626C73.2979 31.3027 72.1406 32.385 70.8014 32.385ZM61.1257 25.4346C58.6799 25.4346 56.6912 27.2533 56.6912 29.7626C56.6912 32.2515 58.6799 34.0893 61.1257 34.0893C63.5703 34.0893 65.5602 32.2515 65.5602 29.7626C65.5602 27.2533 63.5703 25.4346 61.1257 25.4346ZM61.1257 32.385C59.7852 32.385 58.6292 31.3027 58.6292 29.7626C58.6292 28.2021 59.7852 27.1389 61.1257 27.1389C62.4649 27.1389 63.6171 28.2021 63.6171 29.7626C63.6171 31.3027 62.4649 32.385 61.1257 32.385ZM49.6121 26.7611V28.6002H54.0973C53.9661 29.6278 53.6154 30.3832 53.0776 30.9098C52.423 31.5457 51.4033 32.2515 49.6121 32.2515C46.8519 32.2515 44.6905 30.0704 44.6905 27.3678C44.6905 24.6652 46.8519 22.4841 49.6121 22.4841C51.1046 22.4841 52.1905 23.0551 52.9919 23.7953L54.3155 22.4993C53.1945 21.4514 51.7034 20.6463 49.6121 20.6463C45.827 20.6463 42.646 23.6618 42.646 27.3678C42.646 31.0738 45.827 34.0893 49.6121 34.0893C51.6579 34.0893 53.1945 33.433 54.4025 32.2019C55.6404 30.9899 56.0262 29.2857 56.0262 27.9096C56.0262 27.4822 55.9898 27.0893 55.9249 26.7611H49.6121ZM96.6928 28.1868C96.3278 27.219 95.2016 25.4346 92.9077 25.4346C90.6346 25.4346 88.7421 27.1885 88.7421 29.7626C88.7421 32.1866 90.6151 34.0893 93.1259 34.0893C95.1561 34.0893 96.3278 32.8772 96.8097 32.1714L95.3029 31.1883C94.8002 31.9081 94.1157 32.385 93.1259 32.385C92.1426 32.385 91.4373 31.9437 90.9853 31.0738L96.8967 28.679L96.6928 28.1868ZM90.6658 29.6278C90.6151 27.9592 91.9894 27.1045 92.974 27.1045C93.7455 27.1045 94.4002 27.4822 94.6184 28.0228L90.6658 29.6278ZM85.8611 33.826H87.8042V21.108H85.8611V33.826ZM82.6787 26.3987H82.6138C82.1773 25.8925 81.3447 25.4346 80.29 25.4346C78.0766 25.4346 76.0529 27.3373 76.0529 29.7766C76.0529 32.2019 78.0766 34.0893 80.29 34.0893C81.3447 34.0893 82.1773 33.6276 82.6138 33.1062H82.6787V33.7268C82.6787 35.3814 81.776 36.2704 80.3199 36.2704C79.1327 36.2704 78.3962 35.431 78.0922 34.7252L76.4023 35.4157C76.8894 36.5629 78.1792 37.9746 80.3199 37.9746C82.5982 37.9746 84.5206 36.6621 84.5206 33.4686V25.6979H82.6787V26.3987ZM80.4563 32.385C79.1171 32.385 77.9961 31.2875 77.9961 29.7766C77.9961 28.2517 79.1171 27.1389 80.4563 27.1389C81.776 27.1389 82.8164 28.2517 82.8164 29.7766C82.8164 31.2875 81.776 32.385 80.4563 32.385ZM105.79 21.108H101.143V33.826H103.081V29.0071H105.79C107.943 29.0071 110.053 27.4822 110.053 25.0569C110.053 22.6329 107.938 21.108 105.79 21.108ZM105.841 27.2381H103.081V22.877H105.841C107.288 22.877 108.114 24.0535 108.114 25.0569C108.114 26.0413 107.288 27.2381 105.841 27.2381ZM117.821 25.4105C116.421 25.4105 114.965 26.0159 114.366 27.3576L116.086 28.0635C116.456 27.3576 117.136 27.1287 117.856 27.1287C118.861 27.1287 119.881 27.7201 119.897 28.7642V28.8978C119.546 28.6994 118.795 28.4056 117.872 28.4056C116.019 28.4056 114.132 29.4039 114.132 31.2671C114.132 32.9713 115.649 34.0689 117.355 34.0689C118.659 34.0689 119.378 33.4928 119.83 32.8225H119.897V33.8056H121.768V28.927C121.768 26.6721 120.049 25.4105 117.821 25.4105ZM117.587 32.38C116.953 32.38 116.07 32.0722 116.07 31.3027C116.07 30.3184 117.172 29.9406 118.125 29.9406C118.978 29.9406 119.378 30.125 119.897 30.368C119.745 31.5457 118.709 32.38 117.587 32.38ZM128.588 25.689L126.36 31.2023H126.294L123.991 25.689H121.901L125.361 33.3936L123.387 37.6808H125.412L130.744 25.689H128.588ZM111.119 33.826H113.062V21.108H111.119V33.826Z" fill="white"/>
<defs>
<linearGradient id="paint0_linear_120_96" x1="32.3148" y1="11.8665" x2="17.3424" y2="38.4851" gradientUnits="userSpaceOnUse">
<stop stop-color="#00A0FF"/>
<stop offset="0.0066" stop-color="#00A1FF"/>
<stop offset="0.2601" stop-color="#00BEFF"/>
<stop offset="0.5122" stop-color="#00D2FF"/>
<stop offset="0.7604" stop-color="#00DFFF"/>
<stop offset="1" stop-color="#00E3FF"/>
</linearGradient>
<linearGradient id="paint1_linear_120_96" x1="36.1772" y1="23.6574" x2="-20.9515" y2="23.6574" gradientUnits="userSpaceOnUse">
<stop stop-color="#FFE000"/>
<stop offset="0.4087" stop-color="#FFBD00"/>
<stop offset="0.7754" stop-color="#FFA500"/>
<stop offset="1" stop-color="#FF9C00"/>
</linearGradient>
<linearGradient id="paint2_linear_120_96" x1="31.0546" y1="41.4094" x2="-12.592" y2="72.2551" gradientUnits="userSpaceOnUse">
<stop stop-color="#FF3A44"/>
<stop offset="1" stop-color="#C31162"/>
</linearGradient>
<linearGradient id="paint3_linear_120_96" x1="5.84969" y1="-29.7774" x2="25.3441" y2="-16.0051" gradientUnits="userSpaceOnUse">
<stop stop-color="#32A071"/>
<stop offset="0.0685" stop-color="#2DA771"/>
<stop offset="0.4762" stop-color="#15CF74"/>
<stop offset="0.8009" stop-color="#06E775"/>
<stop offset="1" stop-color="#00F076"/>
</linearGradient>
</defs>
</svg>
